<?xml version="1.0" encoding="UTF-8" standalone="no"?>
<svg
   height="48px"
   viewBox="0 -960 960 960"
   width="48px"
   fill="#e8eaed"
   version="1.1"
   id="svg1"
   sodipodi:docname="ic_book.svg"
   inkscape:version="1.3.2 (091e20e, 2023-11-25, custom)"
   xmlns:inkscape="http://www.inkscape.org/namespaces/inkscape"
   xmlns:sodipodi="http://sodipodi.sourceforge.net/DTD/sodipodi-0.dtd"
   xmlns="http://www.w3.org/2000/svg"
   xmlns:svg="http://www.w3.org/2000/svg">
  <defs
     id="defs1" />
  <sodipodi:namedview
     id="namedview1"
     pagecolor="#ffffff"
     bordercolor="#000000"
     borderopacity="0.25"
     inkscape:showpageshadow="2"
     inkscape:pageopacity="0.0"
     inkscape:pagecheckerboard="0"
     inkscape:deskcolor="#d1d1d1"
     inkscape:zoom="2.8284271"
     inkscape:cx="-130.81475"
     inkscape:cy="-47.552931"
     inkscape:window-width="1920"
     inkscape:window-height="1009"
     inkscape:window-x="-8"
     inkscape:window-y="-8"
     inkscape:window-maximized="1"
     inkscape:current-layer="svg1" />
  <path
     d="M560-574v-48q33-14 67.5-21t72.5-7q26 0 51 4t49 10v44q-24-9-48.5-13.5T700-610q-38 0-73 9.5T560-574Zm0 220v-49q33-13.5 67.5-20.25T700-430q26 0 51 4t49 10v44q-24-9-48.5-13.5T700-390q-38 0-73 9t-67 27Zm0-110v-48q33-14 67.5-21t72.5-7q26 0 51 4t49 10v44q-24-9-48.5-13.5T700-500q-38 0-73 9.5T560-464ZM248-300q53.57 0 104.28 12.5Q403-275 452-250v-427q-45-30-97.62-46.5Q301.76-740 248-740q-38 0-74.5 9.5T100-707v434q31-14 70.5-20.5T248-300Zm264 50q50-25 98-37.5T712-300q38 0 78.5 6t69.5 16v-429q-34-17-71.82-25-37.82-8-76.18-8-54 0-104.5 16.5T512-677v427Zm-30 90q-51-38-111-58.5T248-239q-36.54 0-71.77 9T106-208q-23.1 11-44.55-3Q40-225 40-251v-463q0-15 7-27.5T68-761q42-20 87.39-29.5 45.4-9.5 92.61-9.5 63 0 122.5 17T482-731q51-35 109.5-52T712-800q46.87 0 91.93 9.5Q849-781 891-761q14 7 21.5 19.5T920-714v463q0 27.89-22.5 42.45Q875-194 853-208q-34-14-69.23-22.5Q748.54-239 712-239q-63 0-121 21t-109 58ZM276-489Z"
     id="path1"
     style="fill:#784421" />
  <path
     style="fill:#784421;stroke-width:20"
     d="M 255.05536,-615.20296 V -360.1476"
     id="path2" />
  <path
     style="fill:#784421;stroke-width:17.2062"
     d="m 256.86346,-359.80166 0.10289,-276.4345 45.3774,0.30239 v 275.71095"
     id="path3" />
  <path
     style="fill:#784421;stroke-width:13.7852"
     d="m 191.30299,-579.46727 177.43866,-0.71269 -0.10817,45.3781 -176.97403,0.81344"
     id="path3-3" />
</svg>
